<svg width="400" height="68" viewBox="0 0 400 68" fill="none" xmlns="http://www.w3.org/2000/svg">
<g clip-path="url(#clip0)">
<ellipse cx="217.16" cy="9.28121" rx="8.81998" ry="8.44625" fill="url(#paint0_radial)"/>
<path d="M40.5243 22.1459H41.4432L40.5243 5.97297C35.4703 3.21621 28.3027 1.83784 22.6973 1.83784C10.1081 1.83784 0 8.27027 0 20.4C0 40.4324 31.5189 39.4216 31.5189 56.0541C31.5189 63.9568 26.0054 67.0811 20.7676 67.0811C10.5676 67.0811 4.04324 58.2595 1.01081 46.3135H0.0918919L1.01081 63.4054C6.06486 66.1622 14.0595 68 20.6757 68C32.9892 68 44.2919 61.7514 44.2919 47.6C44.2919 26.7405 12.773 27.0162 12.773 11.3027C12.773 5.23784 17.4595 2.75675 22.7892 2.75675C31.427 2.75675 37.4919 12.2216 40.5243 22.1459Z" fill="white"/>
<path d="M80.9883 27.5676V57.4324C79.1505 58.9946 76.4856 61.1081 72.2586 61.1081C68.9505 61.1081 67.2964 58.9027 67.2964 55.3189V20.2162H65.6424L46.5289 22.4216V23.3405C51.3992 23.8 51.9505 24.1676 51.9505 27.5676V54.2162C51.9505 64.3243 57.7397 68 64.5397 68C71.2478 68 76.7613 63.8649 80.9883 58.3514H81.4478L81.8154 68H82.7343L101.756 65.7946V64.8757C96.8857 64.4162 96.3343 64.0487 96.3343 60.6487V20.2162H94.6802L73.7289 22.4216V23.3405C80.437 23.8 80.9883 24.1676 80.9883 27.5676Z" fill="white"/>
<path d="M122.462 27.0162H122.002L122.462 0H121.543L101.694 2.20541V3.12432C106.564 3.58378 107.116 3.95135 107.116 7.35135V67.5405H108.035L115.478 62.4865C120.164 66.8054 125.862 68 130.548 68C143.413 68 153.521 58.9027 153.521 44.1081C153.521 30.3243 146.629 20.2162 135.051 20.2162C129.537 20.2162 125.402 22.8811 122.462 27.0162ZM127.975 25.7297C133.213 25.7297 137.348 31.427 137.348 44.8432C137.348 56.5135 135.143 66.7135 129.262 66.7135C126.781 66.7135 122.462 65.7027 122.462 55.8703V27.9351C124.208 26.4649 126.046 25.7297 127.975 25.7297Z" fill="white"/>
<path d="M157.277 28.027L174.277 67.5405H182.272L196.699 28.5784C198.077 24.9946 199.088 22.8811 203.499 22.0541V21.1351H185.488V22.0541C195.412 22.6054 196.699 25.2703 195.412 28.8541L185.488 55.5946H185.304L174.737 28.8541C173.45 25.6378 173.818 22.6054 179.148 22.0541V21.1351H151.856V22.0541C154.704 22.4216 155.991 24.9946 157.277 28.027Z" fill="white"/>
<path d="M225.249 62.6703V20.2162H224.33L204.481 22.4216V23.3405C209.351 23.8 209.903 24.1676 209.903 27.5676V62.6703C209.903 65.3351 209.351 65.7027 204.481 66.1622V67.0811H230.67V66.1622C225.8 65.7027 225.249 65.3351 225.249 62.6703Z" fill="white"/>
<path d="M264.823 34.9189H265.742L264.823 23.0649C261.147 21.3189 255.266 20.2162 250.947 20.2162C238.634 20.2162 233.212 26.2811 233.212 33.6324C233.212 50.3568 257.38 49.8054 257.38 60.6487C257.38 64.6919 254.439 67.0811 249.753 67.0811C242.769 67.0811 236.704 62.3027 233.672 52.3784H232.753L233.764 64.7838C237.439 66.6216 244.515 68 249.293 68C261.056 68 268.315 62.3027 268.315 53.573C268.315 37.8595 244.791 38.4108 244.791 26.7405C244.791 23.1568 246.904 21.1351 250.764 21.1351C256.737 21.1351 262.342 28.3946 264.823 34.9189Z" fill="white"/>
<path d="M304.167 27.5676V57.4324C302.329 58.9946 299.664 61.1081 295.437 61.1081C292.129 61.1081 290.475 58.9027 290.475 55.3189V20.2162H288.821L269.708 22.4216V23.3405C274.578 23.8 275.129 24.1676 275.129 27.5676V54.2162C275.129 64.3243 280.919 68 287.719 68C294.427 68 299.94 63.8649 304.167 58.3514H304.627L304.994 68H305.913L324.935 65.7946V64.8757C320.064 64.4162 319.513 64.0487 319.513 60.6487V20.2162H317.859L296.908 22.4216V23.3405C303.616 23.8 304.167 24.1676 304.167 27.5676Z" fill="white"/>
<path d="M366.776 61.2919V34.2757C366.959 26.4649 360.527 20.2162 349.132 20.2162C335.9 20.2162 328.457 30.0486 328.457 35.2865C328.457 38.7784 331.305 40.0649 334.338 40.0649C337.738 40.0649 340.127 38.3189 340.127 36.2054C340.127 33.5405 334.705 32.6216 334.705 28.9459C334.705 25.3622 338.565 23.1568 342.424 23.1568C348.949 23.1568 351.43 28.1189 351.43 33.2649V42.5459C331.489 43.7405 327.078 51.4595 327.078 57.1568C327.078 63.2216 331.03 68 338.014 68C343.527 68 348.122 65.2432 351.246 60.6487H351.43V61.7514C351.43 65.1514 353.819 68 359.057 68C364.295 68 368.981 65.6108 372.749 62.5784L372.657 61.8432C371.462 62.5784 369.992 63.4054 368.889 63.4054C367.511 63.4054 366.776 62.5784 366.776 61.2919ZM351.43 43.4649V59.7297C350.235 60.4649 349.132 61.2 347.478 61.2C344.538 61.2 342.7 59.0865 342.7 53.6649C342.7 46.773 345.824 44.2 351.43 43.4649Z" fill="white"/>
<path d="M394.584 62.6703V0H393.666L373.817 2.20541V3.12432C378.687 3.58378 379.239 3.95135 379.239 7.35135V62.6703C379.239 65.3351 378.687 65.7027 373.817 66.1622V67.0811H400.006V66.1622C395.136 65.7027 394.584 65.3351 394.584 62.6703Z" fill="white"/>
</g>
<defs>
<radialGradient id="paint0_radial" cx="0" cy="0" r="1" gradientUnits="userSpaceOnUse" gradientTransform="translate(223.044 3.43872) rotate(128.89) scale(14.0233 14.8104)">
<stop stop-color="white" stop-opacity="0.8"/>
<stop offset="1" stop-color="white"/>
</radialGradient>
<clipPath id="clip0">
<rect width="400" height="67.9985" fill="white"/>
</clipPath>
</defs>
</svg>
